<?xml version="1.0" encoding="utf-8"?>
<!-- Generator: Adobe Illustrator 21.1.0, SVG Export Plug-In . SVG Version: 6.00 Build 0)  -->
<svg version="1.1" id="Layer_1" xmlns="http://www.w3.org/2000/svg" xmlns:xlink="http://www.w3.org/1999/xlink" x="0px" y="0px"
	 viewBox="0 0 1280 800" style="enable-background:new 0 0 1280 800;" xml:space="preserve">
<g>
	<path d="M902.4,275.8c2.2-1.1,3.9-2.4,5.1-4c1.2-1.6,1.8-3.3,1.8-5.3c0-1.3-0.2-2.6-0.7-3.7c-0.5-1.2-1.1-2.1-1.9-3
		c-0.8-0.9-1.7-1.5-2.8-2c-1.1-0.5-2.3-0.7-3.5-0.7c-1.9,0-3.5,0.3-5.1,1c-1.5,0.6-2.9,1.6-4.1,2.7c-1.2,1.1-2.3,2.4-3.2,4
		c-0.9,1.5-1.7,3.1-2.4,4.8c-0.6,1.7-1.2,3.5-1.6,5.2c-0.4,1.8-0.7,3.5-0.9,5.2c4.1-0.3,7.8-0.8,11-1.5
		C897.4,277.9,900.2,276.9,902.4,275.8z"/>
	<path d="M816.4,268c-0.6-1.7-1.5-3.1-2.5-4.2c-1-1.1-2.4-1.7-3.9-1.7c-1.7,0-3.5,0.5-5.2,1.3s-3.4,2-5,3.5
		c-1.6,1.5-3.2,3.2-4.6,5.1c-1.5,2-2.8,4-4.1,6.1c-1.3,2.1-2.4,4.3-3.5,6.5s-1.9,4.3-2.6,6.2s-1.3,3.7-1.7,5.4
		c-0.4,1.6-0.6,2.9-0.6,3.9c0.4,1.8,1.1,3.4,2,4.9c0.9,1.4,2,2.7,3.3,3.7c1.3,1,2.7,1.8,4.3,2.4c1.6,0.6,3.2,0.8,5,0.8
		c2.9,0,5.6-0.7,8.2-2.2c2.5-1.4,4.8-3.5,6.7-6.3c1.9-2.8,3.4-6.1,4.5-10.2c1.1-4,1.7-8.5,1.7-13.6c0-2-0.2-4-0.5-6.1
		C817.5,271.6,817,269.7,816.4,268z"/>
	<path d="M511.3,163.9v186.4h460.1V163.9H511.3z M742,223.5c0.4-1,1-1.8,1.7-2.5c0.7-0.7,1.4-1.2,2.3-1.5c0.9-0.3,1.7-0.5,2.4-0.5
		c0.9,0,1.9,0.2,2.7,0.6c0.8,0.4,1.4,0.9,2,1.5c0.6,0.6,1,1.3,1.3,2.2c0.3,0.8,0.5,1.7,0.5,2.7c0,1-0.2,2-0.6,3
		c-0.3,1-0.9,1.9-1.4,2.7c-0.6,0.8-1.3,1.4-2.3,2c-0.9,0.5-1.9,0.7-2.9,0.7c-1,0-1.9-0.2-2.7-0.6c-0.8-0.4-1.4-0.9-2-1.7
		c-0.6-0.7-0.9-1.4-1.3-2.4c-0.3-0.9-0.4-1.8-0.4-2.7C741.4,225.7,741.6,224.6,742,223.5z M656.7,223.5c0.4-1,1-1.8,1.7-2.5
		c0.7-0.7,1.4-1.2,2.3-1.5c0.9-0.3,1.7-0.5,2.4-0.5c0.9,0,1.9,0.2,2.7,0.6s1.4,0.9,2,1.5c0.6,0.6,1,1.3,1.3,2.2
		c0.3,0.8,0.5,1.7,0.5,2.7c0,1-0.2,2-0.6,3c-0.3,1-0.9,1.9-1.4,2.7c-0.6,0.8-1.3,1.4-2.3,2c-0.9,0.5-1.9,0.7-2.9,0.7
		c-1,0-1.9-0.2-2.7-0.6s-1.4-0.9-2-1.7c-0.6-0.7-0.9-1.4-1.3-2.4c-0.3-0.9-0.4-1.8-0.4-2.7C656,225.7,656.3,224.6,656.7,223.5z
		 M644,232.1c-0.9,3.3-2.2,7.2-3.9,11.6c-1.7,4.4-3.7,9.3-6.1,14.7c-2.4,5.4-5.1,11.2-8.1,17.3c-3,6.1-6.3,12.6-9.8,19.4
		c-3.5,6.8-7.3,13.7-11.3,20.8l-7.1,0.6l-0.9-0.2c-4.5-22.8-8.3-41.4-11.4-55.8c-3.1-14.3-5.8-24.5-8.1-30.4
		c-0.6-1.5-1.2-2.8-1.8-3.9s-1.3-2-2-2.7c-0.8-0.7-1.7-1.2-2.8-1.5c-1-0.3-2.4-0.5-3.9-0.5c-0.9,0-2,0.1-3.2,0.2
		c-1.2,0.2-2.4,0.3-3.9,0.6l-0.5-3.9c4.5-1.1,8.2-2,11.2-2.6s5.5-0.9,7.6-0.9c1.5,0,2.7,0.2,3.6,0.6c0.9,0.4,1.7,1.1,2.4,2
		c0.7,0.9,1.3,2,1.8,3.4c0.6,1.3,1.1,3,1.7,4.9c1.1,3.4,2.2,7.4,3.5,12.2c1.3,4.7,2.6,10.3,4.1,16.8c1.4,6.5,3,13.8,4.6,22.1
		c1.7,8.3,3.3,17.7,5.1,28.2h0.2c2.7-5.2,5.3-10.3,7.9-15.5c2.5-5.1,5-10.2,7.2-15c2.3-4.9,4.3-9.5,6.2-14s3.5-8.7,4.8-12.6
		c1.3-3.9,2.4-7.5,3.1-10.7c0.7-3.2,1.1-6.1,1.1-8.4c0-6.1-2-10.9-6-14.3l0.3-0.8c0.6-0.1,1.1-0.2,1.7-0.2c0.6-0.1,1.2-0.1,1.8-0.1
		c1.5,0,2.9,0.2,4.3,0.6c1.4,0.4,2.7,0.9,3.9,1.8c1.1,0.9,2,2,2.8,3.4c0.7,1.4,1,3.1,1,5.3C645.3,226.3,644.9,228.9,644,232.1z
		 M675.7,311.8c-1.6,0.9-3.2,1.7-5,2.4c-1.7,0.7-3.4,1.3-5.1,1.7c-1.7,0.5-3.1,0.7-4.3,0.7c-0.8,0-1.6-0.1-2.2-0.2
		c-0.6-0.2-1.3-0.5-1.8-0.9c-0.6-0.6-1-1.3-1.4-2.3c-0.4-1-0.8-2.4-1-4.1c-0.2-1.7-0.5-3.9-0.6-6.5c-0.2-2.6-0.2-5.7-0.2-9.4
		c0-2.1,0-4.6,0.1-7.3c0.1-2.8,0.1-5.7,0.2-8.7c0.1-3.1,0.2-6.5,0.3-9.9c0.2-3.5,0.3-7.1,0.6-10.7c0.1-0.8,0.2-1.5,0.6-2
		c0.4-0.5,0.9-0.9,1.4-1.2c0.6-0.2,1.1-0.5,1.7-0.6c0.6-0.1,1.2-0.2,1.7-0.2c2,0,3.8,0.5,5.4,1.3c-0.5,3.3-0.9,6.6-1.3,9.8
		c-0.3,3.3-0.6,6.5-0.9,9.6c-0.2,3.1-0.4,6-0.5,8.7c-0.1,2.8-0.2,5.3-0.2,7.5c0,3,0.1,5.6,0.2,7.7s0.2,3.9,0.4,5.4
		c0.2,1.5,0.5,2.7,0.8,3.5c0.3,0.9,0.7,1.6,1.1,2c0.5,0.5,0.9,0.8,1.6,0.9c0.6,0.2,1.3,0.2,2,0.2c1.4,0,2.9-0.2,4.5-0.6
		s3.2-1,4.9-1.7l0.8,2.3C678.6,310.1,677.3,310.9,675.7,311.8z M714.5,260.8c-0.6-0.9-1.5-1.7-2.4-2.2c-0.9-0.6-2-1-3.2-1.3
		c-1.2-0.2-2.4-0.4-3.5-0.4c-2,0-3.9,0.2-5.5,0.8s-3,1.3-4.1,2.2c-1.1,0.9-2,2-2.5,3.1c-0.6,1.2-0.9,2.4-0.9,3.6
		c0,1.6,0.4,3,1.3,4.3c0.9,1.3,2,2.4,3.3,3.5c1.4,1,3,2,4.8,3s3.7,1.8,5.7,2.8c2.2,1,4.3,2.1,6.5,3.2c2.1,1.1,4.1,2.4,5.8,3.8
		c1.7,1.4,3.1,3.1,4.1,4.9s1.6,4,1.6,6.5c0,3-0.6,5.6-2,7.9s-3.1,4.3-5.3,5.8c-2.2,1.6-4.7,2.8-7.6,3.6c-2.8,0.8-5.7,1.3-8.8,1.3
		c-1.5,0-3.1-0.1-4.7-0.3c-1.7-0.2-3.2-0.6-4.7-1c-1.5-0.5-3-1-4.3-1.7c-1.3-0.7-2.6-1.4-3.6-2.4c-1-0.9-1.8-1.9-2.4-2.9
		c-0.6-1.1-0.9-2.3-0.9-3.5c0-1.1,0.2-2,0.7-2.8c0.5-0.8,1.1-1.4,1.9-1.9c0.8-0.5,1.7-0.9,2.6-1.1s2-0.4,3-0.4l0.3,0.3
		c0.2,2.2,0.8,4.1,1.7,5.7c0.9,1.6,2.1,2.9,3.5,3.9c1.4,1,3,1.7,4.7,2.3c1.7,0.5,3.4,0.7,5.1,0.7c1.6,0,3.2-0.2,4.6-0.6
		c1.5-0.4,2.8-1,3.9-1.9c1.1-0.8,2-1.8,2.7-3c0.7-1.2,1-2.5,1-4s-0.4-2.8-1.1-4c-0.7-1.2-1.7-2.2-2.9-3.1c-1.2-0.9-2.6-1.8-4.3-2.6
		c-1.6-0.8-3.2-1.7-5-2.4c-1.5-0.7-3.1-1.4-4.6-2.2s-3.1-1.5-4.5-2.4c-1.4-0.9-2.8-1.8-4-2.8c-1.3-1-2.4-2.1-3.3-3.4
		s-1.7-2.6-2.2-4.1c-0.6-1.5-0.8-3.2-0.8-5c0-2,0.3-3.9,1-5.5c0.7-1.7,1.7-3.1,2.8-4.5c1.2-1.3,2.6-2.5,4.2-3.5c1.6-1,3.2-1.9,5-2.5
		c1.8-0.7,3.6-1.2,5.5-1.5c1.9-0.3,3.7-0.5,5.5-0.5c2.3,0,4.5,0.2,6.5,0.8c2,0.5,3.9,1.3,5.4,2.2c1.6,0.9,2.8,2.1,3.7,3.5
		s1.3,2.9,1.3,4.6c0,0.6-0.1,1.4-0.3,2.1c-0.2,0.8-0.6,1.5-1.2,2.2c-0.6,0.7-1.3,1.3-2.1,1.7c-0.9,0.5-2,0.7-3.3,0.7
		c-1.2,0-2.4-0.2-3.8-0.6l-0.2-0.4c0.4-0.9,0.7-1.8,0.9-2.5c0.2-0.8,0.2-1.5,0.2-2.1C715.6,262.8,715.2,261.7,714.5,260.8z
		 M761,311.8c-1.6,0.9-3.2,1.7-5,2.4c-1.7,0.7-3.4,1.3-5.1,1.7c-1.7,0.4-3.1,0.7-4.3,0.7c-0.8,0-1.6-0.1-2.2-0.2
		c-0.6-0.2-1.3-0.5-1.8-0.9c-0.6-0.6-1-1.3-1.4-2.3c-0.4-1-0.8-2.4-1-4.1c-0.2-1.7-0.5-3.9-0.6-6.5c-0.2-2.6-0.2-5.7-0.2-9.4
		c0-2.1,0-4.6,0.1-7.3c0.1-2.8,0.1-5.7,0.2-8.7c0.1-3.1,0.2-6.5,0.3-9.9c0.2-3.5,0.3-7.1,0.6-10.7c0.1-0.8,0.2-1.5,0.6-2
		s0.9-0.9,1.4-1.2c0.6-0.2,1.1-0.5,1.7-0.6c0.6-0.1,1.2-0.2,1.7-0.2c2,0,3.8,0.5,5.4,1.3c-0.5,3.3-0.9,6.6-1.3,9.8
		c-0.3,3.3-0.6,6.5-0.9,9.6c-0.2,3.1-0.4,6-0.5,8.7c-0.1,2.8-0.2,5.3-0.2,7.5c0,3,0.1,5.6,0.2,7.7s0.2,3.9,0.4,5.4
		c0.2,1.5,0.5,2.7,0.8,3.5c0.3,0.9,0.7,1.6,1.1,2c0.5,0.5,0.9,0.8,1.6,0.9c0.6,0.2,1.3,0.2,2,0.2c1.4,0,2.9-0.2,4.5-0.6
		s3.2-1,4.9-1.7l0.8,2.3C763.9,310.1,762.6,310.9,761,311.8z M827.5,287.6c-0.9,3.7-2,7.2-3.5,10.2s-3.3,5.8-5.4,8.2
		s-4.3,4.4-6.7,6.1c-2.4,1.7-4.9,2.9-7.6,3.7c-2.7,0.9-5.4,1.3-8,1.3c-1.8,0-3.5-0.2-5.4-0.6s-3.5-1-5.3-1.9
		c-1.7-0.9-3.3-1.9-4.9-3.2c-1.5-1.3-2.9-2.8-4.1-4.6c-1,2.5-2,4.6-3.1,6.2c-1,1.7-2,2.9-2.9,3.9l-2.3-0.6c1.6-4.4,2.8-9.7,3.5-15.9
		c0.8-6.2,1.3-13.2,1.7-21c0.2-3.3,0.3-7.2,0.6-11.4c0.2-4.3,0.5-8.7,0.7-13.5s0.5-9.5,0.7-14.5c0.2-5,0.6-9.8,0.8-14.4
		c0.2-4.6,0.5-9.1,0.7-13.3c0.2-4.2,0.5-7.9,0.6-11.1c0-0.7,0.2-1.3,0.6-1.8c0.4-0.5,0.9-0.9,1.5-1.2c0.6-0.3,1.3-0.6,2-0.7
		c0.8-0.2,1.5-0.2,2.3-0.2c1.7,0,3.6,0.5,5.5,1.4c-0.6,4.6-1.1,9.4-1.7,14.3c-0.6,4.9-1.1,9.8-1.6,14.9c-0.5,5-1,10.1-1.5,15.1
		c-0.5,5-0.9,10.1-1.3,15c-0.4,5-0.7,9.8-1,14.5c-0.3,4.7-0.6,9.3-0.7,13.6l0.5,0.1c2.3-5.6,4.7-10.6,7.3-14.8
		c2.6-4.3,5.3-7.9,8-10.7c2.7-2.9,5.4-5,8-6.5c2.7-1.5,5.2-2.2,7.6-2.2c2,0,3.8,0.4,5.3,1.1c1.5,0.7,2.8,1.7,4,2.9
		c1.1,1.3,2,2.7,2.8,4.3c0.8,1.6,1.3,3.3,1.8,5s0.8,3.5,0.9,5.3c0.2,1.8,0.3,3.5,0.3,5C828.8,279.8,828.3,283.9,827.5,287.6z
		 M865.3,311.8c-1.6,0.9-3.2,1.7-5,2.4c-1.7,0.7-3.4,1.3-5.1,1.7c-1.7,0.5-3.1,0.7-4.3,0.7c-1.6,0-2.8-0.4-3.7-1.2s-1.6-2-2-3.9
		s-0.8-4.1-0.9-7c-0.2-2.8-0.2-6.4-0.2-10.5c0-1.5,0.1-3.6,0.2-6.5c0.1-2.8,0.2-6,0.4-9.7c0.2-3.7,0.3-7.7,0.6-12.1
		c0.2-4.4,0.4-8.9,0.6-13.6c0.2-4.6,0.5-9.4,0.7-14.2c0.2-4.8,0.6-9.4,0.8-13.9c0.2-4.5,0.5-8.7,0.7-12.6c0.2-3.9,0.5-7.4,0.6-10.5
		c0-0.7,0.2-1.3,0.6-1.8c0.4-0.5,0.9-0.9,1.4-1.2c0.6-0.3,1.3-0.6,2-0.7c0.7-0.2,1.5-0.2,2.2-0.2c1.7,0,3.5,0.5,5.4,1.4
		c-0.6,4.9-1.2,9.9-1.7,15c-0.6,5.1-1.1,10.3-1.6,15.6c-0.5,5.3-0.9,10.6-1.4,15.8c-0.4,5.3-0.8,10.6-1.1,15.7s-0.6,10.2-0.7,15.1
		c-0.2,5-0.2,9.7-0.2,14.3c0,2.8,0,5.3,0.1,7.3c0.1,2,0.2,3.8,0.3,5.2c0.2,1.4,0.4,2.5,0.6,3.4c0.2,0.9,0.6,1.5,1,2s0.9,0.8,1.4,0.9
		s1.2,0.2,2,0.2c1.4,0,2.9-0.2,4.5-0.6c1.6-0.4,3.2-1,4.9-1.7l0.8,2.3C868.2,310.1,866.8,310.9,865.3,311.8z M884.3,294.7
		c0.9,3.1,2.2,5.7,3.9,7.9c1.7,2.2,3.5,3.9,5.8,5.1c2.2,1.2,4.6,1.8,7.2,1.8c2.6,0,5.3-0.6,8-1.9c2.8-1.3,5.5-3.4,8.3-6.2
		c0.2,0.1,0.4,0.2,0.7,0.4c0.2,0.2,0.6,0.3,0.8,0.6c0.2,0.2,0.4,0.4,0.6,0.6c0.2,0.2,0.2,0.4,0.2,0.6c0,0.1-0.1,0.2-0.2,0.3
		c-1.7,2.3-3.4,4.2-5.2,5.8c-1.9,1.7-3.8,3.1-5.8,4.2c-2,1.1-4,2-6.1,2.4c-2,0.6-4.1,0.8-6.1,0.8c-3.5,0-6.6-0.7-9.5-2.1
		c-2.9-1.4-5.4-3.3-7.4-5.8c-2-2.4-3.7-5.4-4.9-8.7c-1.2-3.3-1.7-6.9-1.7-10.6c0-3.1,0.3-6.1,1-9.3c0.7-3.1,1.7-6.1,2.9-8.8
		c1.3-2.8,2.8-5.4,4.7-7.8c1.8-2.4,3.9-4.5,6.3-6.3c2.4-1.8,5-3.1,7.7-4.2c2.8-1,5.8-1.5,9.1-1.5c2.1,0,4.2,0.3,6.1,0.9
		c2,0.6,3.6,1.4,5.1,2.5c1.4,1.1,2.6,2.4,3.5,4c0.9,1.6,1.3,3.4,1.3,5.4c0,2.9-0.9,5.5-2.9,7.7c-1.9,2.2-4.6,4-8,5.6
		c-3.4,1.5-7.3,2.8-11.9,3.7s-9.5,1.7-14.8,2.1v0.7C882.9,288.3,883.3,291.6,884.3,294.7z"/>
</g>
<path d="M506.2,158.5h22.8l-2.9-22.8l-194.7,25l23.9,184.9l151-19.5V158.5z M397,296.8h-0.8c-0.7-8.3-1.4-16.1-2.1-23.4
	c-0.7-7.4-1.3-14.6-2-21.5s-1.4-13.9-2.2-20.6c-0.8-6.8-1.7-13.8-2.5-20.9c-0.2-1.3-0.4-2.5-0.6-3.5c-0.2-0.9-0.6-1.7-1.2-2.2
	c-0.6-0.6-1.3-0.9-2.1-1c-0.9-0.2-2-0.2-3.4,0c-0.9,0.2-2.1,0.3-3.5,0.6c-1.3,0.3-2.8,0.6-4.3,1l-0.9-3.5c4.1-1.7,7.6-2.9,10.6-3.8
	c2.9-0.9,5.4-1.5,7.4-1.7c1.9-0.2,3.4-0.2,4.5,0.2c1.1,0.4,1.9,1,2.5,2c0.6,0.9,1,2.1,1.3,3.5c0.2,1.4,0.6,3.1,0.8,4.9
	c0.1,0.6,0.2,2.3,0.6,5s0.6,6.2,1,10.6c0.4,4.3,0.9,9.2,1.4,14.8c0.6,5.6,1.1,11.5,1.7,17.8s1.3,12.8,1.9,19.5
	c0.6,6.7,1.3,13.3,2,19.8L397,296.8z M488.5,283.1c-1.7,0.9-3.3,1.7-5,2.4c-1.7,0.6-3.1,1.1-4.5,1.3c-1.6,0.2-2.8-0.1-3.8-0.8
	c-1-0.7-1.8-1.7-2.4-3.1c-0.6-1.3-1.1-3-1.5-4.9c-0.4-1.9-0.7-3.9-1-6.1c-0.3-2.7-0.6-5.4-0.8-8.3c-0.2-2.8-0.3-5.6-0.4-8.2
	c-0.1-2.6-0.2-5-0.3-7.1c-0.1-2.1-0.2-3.8-0.4-5c-0.4-3.3-1.4-5.7-2.8-7.2c-1.5-1.4-3.2-2-5.4-1.7c-1.7,0.2-3.3,1.1-5,2.8
	c-1.7,1.7-3.2,3.8-4.7,6.5s-2.8,5.8-4.1,9.4c-1.3,3.5-2.3,7.3-3.1,11.4c-0.9,4-1.4,8.3-1.8,12.6c-0.3,4.3-0.3,8.7,0,12.9l-8.8,2.3
	l-0.7,0.1c-0.2-2.8-0.3-5.7-0.5-9c-0.2-3.2-0.5-6.5-0.7-9.8c-0.2-3.3-0.6-6.6-0.8-9.8c-0.3-3.2-0.6-6.3-0.9-9.1
	c-0.2-2.8-0.6-5.4-0.8-7.6c-0.2-2.2-0.5-4-0.6-5.3c-0.2-1.2-0.4-2.1-0.6-2.9c-0.2-0.8-0.6-1.4-1-1.8s-0.9-0.7-1.5-0.9
	c-0.6-0.2-1.3-0.2-2-0.1c-1,0.2-2.2,0.5-3.6,0.9c-1.4,0.5-3,1.1-4.7,1.8l-1-3c2-0.9,3.8-1.9,5.6-2.7c1.8-0.9,3.5-1.6,5-2.2
	c1.5-0.6,2.8-1.1,4-1.5s2.1-0.6,2.8-0.7c1.7-0.2,3,0.1,4.1,0.9c1,0.9,1.7,2.5,2,4.9c0,0.3,0.1,0.9,0.2,2c0.1,1,0.2,2.4,0.3,4
	c0.1,1.6,0.2,3.5,0.3,5.6c0.2,2.1,0.2,4.3,0.4,6.7c0.1,2.4,0.2,4.8,0.3,7.3c0.1,2.5,0.2,5,0.2,7.6h0.2c1.2-7.6,2.8-14.2,4.6-19.6
	c1.8-5.4,3.9-9.8,6-13.3c2.2-3.5,4.4-6.1,6.8-7.8c2.4-1.7,4.7-2.8,7-3.1c1.6-0.2,3.1-0.1,4.7,0.3c1.6,0.4,3,1.2,4.3,2.4
	c1.3,1.2,2.4,2.8,3.4,4.7c0.9,2,1.7,4.4,2,7.4c0.1,0.9,0.2,2,0.3,3.5c0.1,1.5,0.2,3.1,0.2,4.9c0.1,1.8,0.2,3.7,0.2,5.7
	c0.1,2,0.2,4,0.2,5.9c0.1,2,0.2,3.8,0.3,5.5c0.2,1.7,0.2,3.2,0.4,4.6c0.3,2.2,0.6,4,0.9,5.4c0.4,1.3,0.8,2.4,1.3,3.2s1.2,1.3,2,1.4
	c0.8,0.2,1.7,0.2,2.7,0.1c1.5-0.2,3-0.6,4.6-1.2c1.6-0.6,3.1-1.4,4.6-2.4l1.1,2.1c-0.9,0.9-2.1,2-3.5,3.1
	C491.7,281.2,490.1,282.2,488.5,283.1z"/>
<g>
	<path d="M545.8,414.7h-24.5l-6.2,20.2h-3.9l20.2-65h4.8l19.5,65h-3.9L545.8,414.7z M533.9,373.8h-0.2l-11.5,37.9h22.8L533.9,373.8z
		"/>
	<path d="M580.4,400.7v-1.3c0-4.3-1.1-10-8.9-10c-5,0-9.2,2.5-9.2,8.8c0,5,2.4,7.6,7.1,9.4l7.2,2.8c5.7,2.2,8.7,6.2,8.7,12.7
		c0,8-6.2,13.1-13.7,13.1c-13.2,0-14.1-9.4-14.1-15v-1.3h3.5v1.6c0,6.7,2.8,11.7,10.6,11.7c7,0,9.9-4.6,9.9-9.9
		c0-4.6-1.8-7.6-7.1-9.8l-7-2.8c-5.9-2.4-8.9-5.8-8.9-11.9c0-8,5.4-12.3,13-12.3c10.6,0,12.4,7.2,12.4,13v1.4L580.4,400.7
		L580.4,400.7z"/>
	<path d="M614.8,369.9h3.9v65h-3.9V369.9z"/>
	<path d="M624.9,387.3h6.5v-14.1h3.5v14.1h8v3.1h-8v36.7c0,4.6,2.2,5.3,4.2,5.3c1.4,0,2.8-0.1,4.3-0.6v3.1c-1.7,0.4-3.5,0.6-4.9,0.6
		c-4.9,0-7-2.8-7-8v-37h-6.5V387.3z"/>
	<path d="M671.6,418.3c0,8.3,5.4,14.6,14.7,14.6c9,0,15-6.5,15-14.7c0-8.4-4.6-11.3-11.8-13.9l-7.4-2.5c-8.6-2.9-13.2-7.1-13.2-15.9
		c0-10.5,7.2-16.9,17.4-16.9c12,0,17.4,6.9,17.4,17.6h-3.9c0-8.7-4-14.6-13.2-14.6c-7.2,0-13.9,3.4-13.9,13.5
		c0,7.2,3.9,10.6,9.5,12.5l9.6,3.4c8.3,2.9,13.2,7,13.2,16.5c0,11.6-8.6,18.1-18.8,18.1c-15,0-18.6-10.6-18.6-16.9v-4.3h3.9
		L671.6,418.3L671.6,418.3z"/>
	<path d="M713,369.9h3.5v24.6h0.2c1.7-4.2,5.7-8.3,12.1-8.3c6.7,0,12,3.9,12,12.8v35.8h-3.5v-34.2c0-8.4-3.5-11.3-9.5-11.3
		c-7.2,0-11.3,6.9-11.3,15.1V435h-3.5L713,369.9L713,369.9z"/>
	<path d="M764.5,436c-12.5,0-15.7-11.2-15.7-25c0-13.6,3.1-24.8,16.2-24.8c12.5,0,15.7,11.2,15.7,24.8
		C780.7,424.8,777.6,436,764.5,436z M764.8,389.3c-9.1,0-12.1,8.1-12.1,21.8c0,13.6,3,21.7,12.1,21.7c9.1,0,12.1-8.1,12.1-21.7
		C776.9,397.4,773.8,389.3,764.8,389.3z"/>
	<path d="M816.5,434.9h-3.5v-7.2h-0.2c-1.7,4.2-5.7,8.3-12.1,8.3c-6.7,0-12-3.9-12-12.8v-35.8h3.5v34.2c0,8.4,3.5,11.3,9.4,11.3
		c7.2,0,11.3-6.9,11.3-15.1v-30.5h3.5L816.5,434.9L816.5,434.9z"/>
	<path d="M826.2,369.9h3.5v65h-3.5V369.9z"/>
	<path d="M865.1,425.8H865c-1.2,6.5-5.4,10.3-12,10.3c-11.1,0-14.8-10.3-14.8-25c0-14.6,3.3-24.7,15-24.7c6.5,0,10.1,4.3,11.8,9.4
		h0.2V370h3.5v65h-3.5V425.8z M853.5,432.9c8.4,0,11.7-8,11.7-21.9c0.1-15.7-4.6-21.7-11.8-21.7c-8.2,0-11.3,7.2-11.3,21.7
		C842,423.1,844.1,432.9,853.5,432.9z"/>
	<path d="M900.1,369.9h3.5v25.8h0.2c1.7-5.1,4.8-9.4,12.2-9.4c11.9,0,14.6,10.8,14.6,24.7c0,14.7-3.7,25-14.8,25
		c-6.6,0-10.8-3.9-12-10.3h-0.2v9.2h-3.5V369.9z M903.5,411c0,13.9,3.1,21.9,11.7,21.9c9.4,0,11.6-9.8,11.6-21.9
		c0-14.8-2.9-21.7-10.9-21.7C907.1,389.3,903.5,396.3,903.5,411z"/>
	<path d="M941.3,410.9c0,7.6,0.1,22,11.2,22c10,0,11.7-10,11.7-13.5h3.5c0,7.2-4,16.6-14.7,16.6c-12.3,0-15.4-10-15.4-26.2
		c0-14.6,5.2-23.5,15.9-23.5c11.2,0,14.8,9.3,14.8,24.6H941.3z M964.4,407.8c0-8.7-1.3-18.5-11.2-18.5c-10.6,0-11.9,12.3-11.9,18.5
		H964.4z"/>
</g>
</svg>
