<?xml version="1.0" encoding="utf-8"?>
<!-- Generator: Adobe Illustrator 21.0.2, SVG Export Plug-In . SVG Version: 6.00 Build 0)  -->
<svg version="1.1" id="Layer_2" xmlns="http://www.w3.org/2000/svg" xmlns:xlink="http://www.w3.org/1999/xlink" x="0px" y="0px"
	 viewBox="0 0 197.8 693" style="enable-background:new 0 0 197.8 693;" xml:space="preserve">
<path style="fill:#FFFFFF;" d="M0.4,255.6c2.1-4.6,4-15.5,2.7-22.6c-1.3-7.2-2.7-43.5,1.3-53.1s-0.8-27.2,9.9-44.6
	s35.1-16.7,35.1-16.7s22.9-7.5,26.1-12.1c3.2-4.6,1.6-24.7,1.6-24.7c-6.2-4.6-6.9-18.2-6.9-18.2s-0.5,2.4-2.9,0.8
	s-3.2-17.7-2.5-19.1c0.6-1.4,3.3-1,3.3-1s-3.8-21,2.7-31.9C77.4,1.6,92.8,0,98.9,0s21.5,1.6,28,12.4c6.5,10.8,2.7,31.9,2.7,31.9
	s2.7-0.5,3.3,1c0.6,1.4-0.2,17.5-2.5,19.1c-2.4,1.6-2.9-0.8-2.9-0.8s-0.6,13.5-6.9,18.2c0,0-1.6,20.1,1.6,24.7s26.1,12.1,26.1,12.1
	s24.4-0.6,35.1,16.7c10.7,17.4,5.9,35.1,9.9,44.6c4,9.6,2.5,45.9,1.3,53.1c-1.3,7.2,0.6,18,2.7,22.6c2.1,4.6-4.3,80.3-3.3,90.7
	c1,10.4,4.3,38.2,3,40.6s-9.7,23.7-18.5,25c0,0-6.4,4.6-8.6,3.2c-2.2-1.4,0.5-4.6,0.5-4.6s-1.8,0.3-2.9-0.8
	c-1.1-1.1,8.4-10.4,8.4-10.4s-4.8,2.1-6.4,0.2c-1.6-1.9,12.3-9.2,14.7-14.7s-0.8-8.9-0.8-8.9l-4,1.9c0,0-3.8,12.6-6.5,12.7
	c-2.7,0.2-4.5,0.2-2.2-14.7c0,0-3.2-11-0.6-15.9c2.5-4.9,5.4-6.2,5.4-11.5s-7.8-32.7-10.4-47.8c-2.5-15.1,2.2-44.6-0.3-50.4
	c-2.5-5.7-5.6-19.3-5.7-29c-0.2-9.7-2.7-22.6-5.1-25.8c-2.4-3.2,1.1,18.5-4.3,32.4c-5.3,13.9-1.6,37.9,0.9,48.3
	c2.6,10.4,11,68.5,11.8,89.7s-5.3,99.8-4.5,111.1c0.8,11.3,6.2,27.3,6.2,59.8s-5.4,35.2-10,48.8c-4.6,13.5-9.2,48.8-8.8,55.3
	c0,0,2.8,4.6,2.9,7.3c0.1,2.7,0,6.1,0.9,9.4c1,3.3,10.7,26.9,7.8,30.3c-2.9,3.3-19.8,3.7-25.7,3.2c0,0-1.4,2.7-7.3,1.8
	c-5.9-1-5.1-21.7-3.3-32.5c1.8-10.8-3.3-13.5-1.8-20.4c1.6-6.9,4.6-9.9,4.9-12.9s2.7-38.2-1.4-55.3s-3.5-43,0.5-54.5
	s-1.9-17.8-6.2-31.7c-4.3-13.9-6.5-47.5-6.5-62.3s-4.9-25.2-7.3-33.8c-2.4-8.6-2.1-21-2.1-21l-1.9-0.8l-1.9,0.8c0,0,0.3,12.4-2.1,21
	s-7.3,19-7.3,33.8s-2.2,48.4-6.5,62.3s-10.2,20.2-6.2,31.7s4.6,37.5,0.5,54.5S73.5,624,73.9,627c0.3,3,3.3,6.1,4.9,12.9
	c1.6,6.9-3.5,9.6-1.8,20.4c1.8,10.8,2.5,31.6-3.3,32.5c-5.9,1-7.3-1.8-7.3-1.8c-5.9,0.5-22.8,0.2-25.7-3.2
	c-2.9-3.3,6.9-26.9,7.8-30.3c1-3.3,0.8-6.7,0.9-9.4c0.1-2.7,2.9-7.3,2.9-7.3c0.5-6.5-4.1-41.8-8.8-55.3c-4.6-13.5-10-16.3-10-48.8
	s5.4-48.4,6.2-59.8c0.8-11.3-5.3-89.9-4.5-111.1s9.2-79.4,11.8-89.7c2.6-10.4,6.2-34.4,0.9-48.3c-5.3-13.9-1.9-35.5-4.3-32.4
	c-2.4,3.2-4.9,16.1-5.1,25.8c-0.2,9.7-3.2,23.3-5.7,29c-2.6,5.7,2.2,35.2-0.3,50.4c-2.5,15.1-10.4,42.5-10.4,47.8s2.9,6.5,5.4,11.5
	c2.5,4.9-0.6,15.9-0.6,15.9c2.2,14.8,0.5,14.8-2.2,14.7c-2.7-0.2-6.5-12.7-6.5-12.7l-4-1.9c0,0-3.2,3.5-0.8,8.9s16.3,12.7,14.7,14.7
	c-1.6,1.9-6.4-0.2-6.4-0.2s9.6,9.2,8.4,10.4c-1.1,1.1-2.9,0.8-2.9,0.8s2.7,3.2,0.5,4.6s-8.6-3.2-8.6-3.2c-8.8-1.3-17.2-22.6-18.5-25
	s2.1-30.3,3-40.6C4.7,335.9-1.7,260.2,0.4,255.6z"/>
</svg>
