<?xml version="1.0" encoding="utf-8"?>
<!-- Generator: Adobe Illustrator 21.0.2, SVG Export Plug-In . SVG Version: 6.00 Build 0)  -->
<svg version="1.1" id="Layer_1" xmlns="http://www.w3.org/2000/svg" xmlns:xlink="http://www.w3.org/1999/xlink" x="0px" y="0px"
	 viewBox="0 0 177.3 660.8" style="enable-background:new 0 0 177.3 660.8;" xml:space="preserve">
<path style="fill:#FFFFFF;" d="M3.3,322.7c0,0,3.4-9.1,2.7-48.5c-0.6-39.3,3-46.6,4.6-54.2c1.5-7.6,4-33.5,5.5-64s4.9-30.5,8.8-37.8
	c4-7.3,34.4-14.3,38.7-16.2c4.3-1.8,9.4-5.8,10-9.1c0.6-3.4,0-19.2,0-19.2c-8.6-7.9-9.4-20.9-9.4-20.9c-3,0.2-3.3-4.8-3.4-6.4
	c-0.1-1.6-2.1-8.9-2-12.5s4.6-2.4,4.6-2.4C63.4,2.8,78.2,0,88.6,0s25.2,2.8,25.2,31.5c0,0,4.5-1.3,4.6,2.4c0.1,3.6-1.9,10.9-2,12.5
	S116,53,113,52.8c0,0-0.9,13-9.4,20.9c0,0-0.6,15.8,0,19.2s5.8,7.3,10,9.1c4.3,1.8,34.7,8.8,38.7,16.2c4,7.3,7.3,7.3,8.8,37.8
	s4,56.4,5.5,64s5.2,14.9,4.6,54.2c-0.6,39.3,2.7,48.5,2.7,48.5s5.5,27.4,2.4,33.8c-3,6.4-6.7,11-8.5,10.7s-0.9-3.7-0.9-3.7
	s-7.6,4.9-9.4,3.7c-1.8-1.2-2.4-0.3-4-2.5c-1.5-2.1,1.2-4.3,1.2-4.3s-1.8-0.6-3-2.1s8.5-7,8.5-14.6s-1.5-16.2,0.9-25
	s-11-34.1-13.1-61s0.6-26.5-1.5-35.4c-2.1-8.8-11.3-40.2-11.3-50.9c0-0.4,0-0.8,0-1.2c0,0-2.4,14.9-6.4,19.5s-6.1,33.8-4.9,37.5
	s23.5,53.3,23.2,85.9s-14.9,93.6-14.1,104.2c0.7,10.7,4.7,43,5,69.2s-17.7,87.8-17.1,114.9c0.6,27.1,11,44.5,7.9,49.4
	c-3,4.9-12.8,7.9-16.2,7.9c0,0-2.4,3-6.7,1.8s-5.5-11.6-4.6-22.9c0.9-11.3,0.6-26.2-1.5-32.6c-2.1-6.4,7.6-14.9,6.1-25
	s1.8-18-2.4-44.8c-4.3-26.8-3.3-53.9-0.6-67s-3.4-41.8-5.8-50.3s-8.5-71.6-8.5-71.6s-6,63.1-8.5,71.6c-2.4,8.5-8.5,37.2-5.8,50.3
	s3.7,40.2-0.6,67s-0.9,34.7-2.4,44.8s8.2,18.6,6.1,25s-2.4,21.3-1.5,32.6s-0.3,21.6-4.6,22.9c-4.3,1.2-6.7-1.8-6.7-1.8
	c-3.4,0-13.1-3-16.2-7.9c-3-4.9,7.3-22.2,7.9-49.4c0.6-27.1-17.4-88.7-17.1-114.9c0.3-26.2,4.3-58.5,5-69.2s-13.8-71.6-14.1-104.2
	s21.9-82.3,23.2-85.9c1.2-3.7-0.9-32.9-4.9-37.5S42,170.2,42,170.2c0,0.4,0,0.8,0,1.2c0,10.7-9.1,42.1-11.3,50.9
	c-2.1,8.8,0.6,8.5-1.5,35.4c-2.1,26.8-15.5,52.1-13.1,61c2.4,8.8,0.9,17.4,0.9,25s9.8,13.1,8.5,14.6c-1.2,1.5-3,2.1-3,2.1
	s2.7,2.1,1.2,4.3c-1.5,2.1-2.1,1.2-4,2.5c-1.8,1.2-9.4-3.7-9.4-3.7s0.9,3.4-0.9,3.7c-1.8,0.3-5.5-4.3-8.5-10.7
	C-2.2,350.1,3.3,322.7,3.3,322.7z"/>
</svg>
