<?xml version="1.0" encoding="utf-8"?>
<!-- Generator: Adobe Illustrator 21.0.2, SVG Export Plug-In . SVG Version: 6.00 Build 0)  -->
<svg version="1.1" id="Layer_1" xmlns="http://www.w3.org/2000/svg" xmlns:xlink="http://www.w3.org/1999/xlink" x="0px" y="0px"
	 viewBox="0 0 274.1 239.3" style="enable-background:new 0 0 274.1 239.3;" xml:space="preserve">
<g>
	<g>
		<g>
			<path style="fill:#6B6B6B;" d="M136.9,233.6L136.9,233.6c-5.5,0-10.5-4.3-13.1-11.1l0,0c-8.1-21.3-10.3-46.1-6.1-69.6l3.3-18.8
				c1.7-9.4,7.6-16,14.4-16h2.9c6.8,0,12.8,6.6,14.4,16l3.3,18.8c4.2,23.5,2,48.3-6.1,69.6l0,0C147.4,229.3,142.3,233.6,136.9,233.6
				z"/>
		</g>
		<g>
			<path style="fill:#6B6B6B;" d="M139,118.1h-4.3c-5.7,0-10.4-4.6-10.4-10.4V96.4c0-5.7,4.6-10.4,10.4-10.4h4.3
				c5.7,0,10.4,4.6,10.4,10.4v11.3C149.4,113.4,144.8,118.1,139,118.1z"/>
		</g>
		<g>
			<path style="fill:#FFFFFF;" d="M120.9,134.4v0.2l-2.7,15.1C81.5,152.3,52.1,177,52.1,177c-25.6-1.4-47.9-26.5-47.9-26.5
				c12.3-7.8,27.1-12.5,42.1-15.2c3.7-0.6,7.4-1.1,11-1.6c1.1-0.1,2.3-0.3,3.6-0.4c0.1,0,0.3,0,0.5,0c15.2-1.5,29.7-1.3,41-0.6
				c0.3,0,0.5,0,0.8,0.1C111.1,133.2,117.3,133.9,120.9,134.4z"/>
		</g>
		<g>
			<path style="fill:#FFFFFF;" d="M124.3,118.8v6.3c-1.6,2.5-2.8,5.6-3.4,9l-0.1,0.3v0.2c-6.2-0.9-12.1-1.5-17.7-1.9
				c-0.3,0-0.5,0-0.8-0.1c-17.2-1.2-31.3-0.4-41,0.6c-0.2,0-0.3,0-0.5,0c-1.2,0.1-2.4,0.3-3.6,0.4c-6.8,0.9-10.6,1.8-10.6,1.8
				c-0.1-0.1-0.3-0.1-0.4-0.2C23,124.7,11,93.8,11,93.8C53.9,84.8,108.1,110.4,124.3,118.8z"/>
		</g>
		<g>
			<path style="fill:#FFFFFF;" d="M269.9,150.5c0,0-22.4,25.1-47.9,26.5c0,0-29.6-24.9-66.5-27.3l-2.7-15.1v-0.2
				c3.5-0.5,9.9-1.2,18.1-1.7c0.2,0,0.5,0,0.7,0c0.7,0,1.3-0.1,2-0.1c10.9-0.6,24.7-0.7,39,0.7c0.2,0,0.3,0,0.5,0.1
				c1.1,0.1,2.2,0.2,3.2,0.4c0.4,0.1,0.9,0.1,1.3,0.2c3.4,0.4,6.7,0.8,10.1,1.5C242.8,138,257.6,142.7,269.9,150.5z"/>
		</g>
		<g>
			<path style="fill:#FFFFFF;" d="M263,93.9c0,0-12,31-35.2,41.4c-0.1,0.1-0.3,0.1-0.4,0.2c0,0-3.4-0.8-9.7-1.6
				c-0.4,0-0.9-0.1-1.3-0.2c-1.1-0.1-2.2-0.3-3.2-0.4c-0.2,0-0.4,0-0.5-0.1c-9.3-1-22.7-1.7-39-0.7c-0.7,0-1.3,0.1-2,0.1
				c-0.2,0-0.5,0-0.7,0c-5.7,0.4-11.7,1-18.1,1.9v-0.2l-0.1-0.4c-0.6-3.2-1.6-6-3-8.4v-6.9C166,110.4,220.2,84.8,263,93.9z"/>
		</g>
		<g>
			<path d="M51.8,182.7C24.2,181.2,0.9,155.4,0,154.3l1.2-8.6c11.7-7.5,26.6-12.8,44.2-16c3.4-0.6,7-1.1,11.4-1.6
				c1.1-0.1,2.3-0.3,3.7-0.4l0.6-0.1c13-1.3,27.4-1.5,41.8-0.6h0.3c0.2,0,0.3,0,0.5,0c7.9,0.5,14.2,1.2,18.2,1.7l4.9,6.5v0.2
				l-2.7,15.3l-5.2,4.7c-34.5,2.4-62.5,25.7-62.8,26L51.8,182.7z M13.5,151.7c7.3,6.6,21.5,17.7,36.8,19.4
				c6.9-5.4,31.9-23.1,63-26.7l0.9-5.1c-3.2-0.3-7.1-0.7-11.4-0.9c-0.3,0-0.6,0-0.9-0.1c-13.8-0.8-27.5-0.6-39.9,0.6h-0.5
				c-1.2,0.1-2.4,0.3-3.5,0.4c-4.2,0.5-7.6,1-10.8,1.5C34.2,143.3,22.9,146.9,13.5,151.7z"/>
		</g>
		<g>
			<path d="M48,141.1l-3.6-0.3l2.3-5.2l-2.4,5.2c-0.2-0.1-0.4-0.2-0.5-0.2c-24.9-11.3-37.5-43.2-38-44.5l4.1-7.6
				c6.4-1.4,13.4-2,20.7-2c39.2,0,80.4,19.2,96.3,27.4l3.1,5.1v6.3l-0.9,3c-1.2,1.9-2.1,4.3-2.6,7l-0.1,0.4l0,0l-6.4,4.8
				c-5.8-0.8-11.6-1.4-17.3-1.8c-0.2,0-0.6,0-0.9-0.1c-13.8-0.9-27.5-0.7-39.9,0.6h-0.5c-0.7,0.1-1.5,0.2-2.2,0.3l-1.3,0.2
				C51.6,140.2,48,141.1,48,141.1z M19.4,98.3c4.5,8.8,14,24.3,28,31.2c1.9-0.4,5-0.9,9.2-1.4l1.3-0.2c0.8-0.1,1.7-0.2,2.5-0.3h0.5
				c12.8-1.4,27.3-1.6,41.8-0.6h0.2c0.2,0,0.3,0,0.5,0c4.4,0.3,8.8,0.7,13.1,1.2c0.6-1.7,1.3-3.3,2.1-4.7v-1.3
				c-14.9-7.4-53.1-24.6-88-24.6C26.8,97.7,23,97.9,19.4,98.3z"/>
		</g>
		<g>
			<path d="M222.3,182.7l-4-1.3l0,0c-0.3-0.2-28.7-23.7-63.2-26l-5.2-4.7l-2.7-15.1l4.8-6.8c4-0.5,10.4-1.3,18.5-1.7h0.7
				c0.7,0,1.4-0.1,2.1-0.1c13.9-0.7,27.5-0.5,39.9,0.7c0.1,0,0.2,0,0.4,0c1.3,0.1,2.5,0.3,3.5,0.4c0.5,0.1,0.8,0.1,1.2,0.1
				c3.9,0.4,7.3,0.9,10.5,1.5c17.6,3.1,32.4,8.5,44.1,16l1.2,8.6C273.2,155.4,249.9,181.2,222.3,182.7z M160.4,144.4
				c31.3,3.5,56.4,21.4,63.4,26.7c15.3-1.7,29.5-12.8,36.8-19.4c-9.4-4.8-20.7-8.4-33.8-10.8c-3-0.5-6.2-1-9.7-1.4
				c-0.4,0-0.9-0.1-1.3-0.2c-1-0.1-2.1-0.3-3.1-0.4c-0.1,0-0.2,0-0.4,0c-11.9-1.2-24.9-1.4-38.3-0.7c-0.7,0-1.3,0.1-1.9,0.1h-0.7
				c-4.5,0.3-8.5,0.6-11.8,1L160.4,144.4z"/>
		</g>
		<g>
			<path d="M226.1,141.1c0,0-3.3-0.8-9.1-1.5c-0.4,0-0.9-0.1-1.3-0.2l-0.8-0.1c-0.7-0.1-1.5-0.2-2.2-0.3c-0.1,0-0.3,0-0.4,0
				c-12.2-1.3-25.1-1.5-38.2-0.7c-0.7,0-1.3,0.1-1.9,0.1h-0.7c-5.9,0.4-11.8,1.1-17.6,1.9l-6.4-4.5l-0.2-0.8
				c-0.4-2.4-1.2-4.6-2.3-6.4l-0.8-2.9v-6.9l3.1-5.1c15.9-8.2,57.2-27.4,96.3-27.4c7.3,0,14.3,0.7,20.7,2l4.1,7.6
				c-0.5,1.4-13.1,33.2-38,44.5c-0.2,0.1-0.3,0.2-0.5,0.2L226.1,141.1z M189.2,126.4c8.3,0,16.4,0.4,24.1,1.2c0,0,0.2,0,0.4,0
				c1,0.1,1.8,0.2,2.7,0.3l0.8,0.1c0.5,0.1,0.8,0.1,1.2,0.1h0.2c3.7,0.5,6.5,1,8.2,1.3c14-6.9,23.5-22.4,28-31.2
				c-3.6-0.4-7.3-0.6-11.2-0.6c-34.9,0-73.2,17.2-88,24.6v2c0.7,1.3,1.2,2.7,1.7,4.1c4.4-0.5,8.9-1,13.3-1.3h0.7
				c0.7,0,1.4-0.1,2.1-0.1C178.6,126.6,183.9,126.4,189.2,126.4z"/>
		</g>
		<g>
			<path d="M132.3,57.2h-11.4v-8.7c0-20.5-16.6-37.1-37.1-37.1V0c26.7,0,48.5,21.8,48.5,48.5V57.2z"/>
		</g>
		<g>
			<path d="M152.4,57.2H141v-8.7C141,21.8,162.8,0,189.5,0v11.4c-20.5,0-37.1,16.6-37.1,37.1V57.2z"/>
		</g>
		<g>
			<polygon points="153.2,106.3 145.6,97.8 175.9,70.4 175.9,54.8 178.7,49.8 192.5,41.9 198.2,51.8 187.3,58.1 187.3,73 
				185.4,77.2 			"/>
		</g>
		<g>
			<polygon points="120.5,106.3 88.4,77.2 86.5,73 86.5,58.1 75.6,51.8 81.3,41.9 95,49.8 97.9,54.8 97.9,70.4 128.2,97.8 			"/>
		</g>
		<g>
			<polygon points="151.6,107.3 147.2,96.8 206.6,72.3 208.8,71.8 223,71.8 223,83.2 209.9,83.2 			"/>
		</g>
		<g>
			<polygon points="122.2,107.3 63.8,83.2 50.7,83.2 50.7,71.8 64.9,71.8 67.1,72.3 126.5,96.8 			"/>
		</g>
		<g>
			<path style="fill:#6B6B6B;" d="M133.3,53.6l-10.9,6c-2.4,1.3-3.8,3.8-3.8,6.5v7.8c0,2.4,0.9,4.6,2.4,6.4l7.2,8.1
				c2.3-2.6,8.7-2.3,8.7-2.3s6.4-0.3,8.7,2.3l7.2-8.1c1.6-1.8,2.4-4,2.4-6.4v-7.8c0-2.7-1.5-5.2-3.8-6.5l-10.9-6
				C138.2,52.4,135.5,52.4,133.3,53.6z"/>
		</g>
		<g>
			<path d="M136.9,239.3c-7.9,0-15-5.7-18.4-14.8c-8.5-22.3-10.8-48.1-6.4-72.6l3.3-18.8c2.2-12.2,10.4-20.7,20.1-20.7h2.9
				c9.7,0,17.9,8.5,20.1,20.7l3.3,18.8c4.3,24.5,2.1,50.3-6.4,72.6C151.8,233.6,144.8,239.3,136.9,239.3z M135.4,123.8
				c-3.9,0-7.7,4.9-8.8,11.3l-3.3,18.8c-4,22.5-1.9,46.2,5.9,66.6c1.7,4.5,4.8,7.4,7.8,7.4s6.1-2.9,7.8-7.4
				c7.8-20.4,9.8-44,5.9-66.6l-3.3-18.8c-1.1-6.5-4.9-11.3-8.8-11.3H135.4z"/>
		</g>
		<g>
			<path d="M139,123.8h-4.3c-8.9,0-16.1-7.2-16.1-16.1V96.4c0-8.9,7.2-16.1,16.1-16.1h4.3c8.9,0,16.1,7.2,16.1,16.1v11.3
				C155.1,116.5,147.9,123.8,139,123.8z M134.7,91.7c-2.6,0-4.7,2.1-4.7,4.7v11.3c0,2.6,2.1,4.7,4.7,4.7h4.3c2.6,0,4.7-2.1,4.7-4.7
				V96.4c0-2.6-2.1-4.7-4.7-4.7H134.7z"/>
		</g>
		<g>
			<path d="M132.2,92.4c0,0,0.1-0.1,0.3-0.3H124l-7.2-8.1c-2.5-2.8-3.9-6.4-3.9-10.2V66c0-4.8,2.6-9.2,6.8-11.5l10.9-6
				c3.9-2.1,8.8-2.1,12.6,0l10.9,6c4.2,2.3,6.8,6.7,6.8,11.5v7.8c0,3.8-1.4,7.4-3.9,10.2l-7.2,8.1h-8.5c0.2,0.2,0.3,0.2,0.3,0.3
				c-0.4-0.3-2-0.6-4.1-0.6h-0.3h-0.8C134.2,91.7,132.6,92.1,132.2,92.4z M137.4,80.3c2.1,0,4.5,0.2,6.8,0.9l4.3-4.8
				c0.6-0.7,1-1.6,1-2.6V66c0-0.6-0.3-1.2-0.9-1.5l-10.9-6c-0.5-0.3-1.1-0.3-1.6,0l-10.9,6c-0.5,0.3-0.9,0.9-0.9,1.5v7.8
				c0,1,0.4,1.9,1,2.6l4.3,4.8c2.3-0.7,4.7-0.9,6.8-0.9c0.2,0,0.4,0,0.6,0C137,80.3,137.2,80.3,137.4,80.3z"/>
		</g>
	</g>
	<rect x="120.9" y="132" width="18.3" height="11.4"/>
	<rect x="120.9" y="151.5" width="18.3" height="11.4"/>
	<rect x="117.2" y="171" width="22" height="11.4"/>
	<rect x="120.9" y="190.4" width="18.3" height="11.4"/>
	<rect x="120.9" y="209.9" width="18.3" height="11.4"/>
</g>
</svg>
