<?xml version="1.0" encoding="utf-8"?>
<!-- Generator: Adobe Illustrator 21.0.2, SVG Export Plug-In . SVG Version: 6.00 Build 0)  -->
<svg version="1.1" id="Layer_1" xmlns="http://www.w3.org/2000/svg" xmlns:xlink="http://www.w3.org/1999/xlink" x="0px" y="0px"
	 viewBox="0 0 295 514.2" style="enable-background:new 0 0 295 514.2;" xml:space="preserve">
<path style="fill:#FF6969;" d="M158.6,123.6c1.6-1.5,4.2-3.9,4.1-6.4c-0.1-1.9-2.4-2.2-3.9-2.1c-2.3,0.2-4.2,1.5-5.5,3.2
	c-1.2,1.5-2.1,0.5-2.5,0c-1.9-2.4-2.7-3-5.1-3.7c-2.3-0.7-4.2,1-3.2,3.4c0.9,2.3,4.7,7.6,8.5,8.9
	C153.8,126.9,156.5,125.5,158.6,123.6z"/>
<path style="fill:#595959;" d="M53.8,424.3c-1.4-27.3-6.3-54-8.6-81.2c-1.6-18-1.9-34-1.6-52c-4.9,0.7-11.8,4.7-15.3,7.5
	c-7.7,6.3-12.9,17.4-15.3,26.9c-5.8,22.8-3.7,47.8,1.8,70.4c3.3,13.7,6.9,27.3,9.4,41.2c2.1,11.4-1,22.9-1.5,34.3
	c-0.4,10,1.2,21.9,12.7,24.8c8.7,2.2,18-1,23.5-8.1c-3.7-8.7-4.2-18.8-4.6-28.1C53.9,448.2,54.4,436.2,53.8,424.3z M244.8,336.5
	c2.4-17.9,7.4-93.6,8-103.4c1.2-19.1,2.8-38.2,3.7-57.3c0.9-19.7,1.9-39.8,0.3-59.5c-1.3-15.9-4.6-51.1-4.9-53.1
	c-2.3-14.1-3.5-29.3-9.3-42.5C240.8,16.8,237,7.8,231.4,9s-10.1,6.5-13.5,10.8c-6.5,8.5-11,18.5-17.1,27.1c1,0.9,1.8,2,2,3.4
	c0.1,0.7-0.1,1.5-0.7,2c-2.8,2.2-5.1,1.1-8.3,0.4c-5.1-1.2-10.2-1.8-15.3-2.6c-10-1.6-19.7-1.7-29.7-0.7c-9.7,1-22,4.4-30.9,0.7
	c-0.3,2.3-3,3-4.8,2c-6.8-3.6-25.8-52.6-36-42.6C69.6,16.8,67.2,30.1,65,40c-1.8,7.9-3.3,15.8-4.9,23.7c-1.7,8.5-2.8,13.8-5.3,26.2
	c-1.5,9.4-3.2,18.8-4.6,28.2c-2.9,20.6-4.3,41.3-4,62.2c0.2,20.2,1.5,40.4,2.8,60.5c1.3,19.6,3.1,24.1,3.1,54.2
	c0.7,11.8,0.1,28.8,1.2,40.6c2,23.1,6.5,46,8.4,69.1c1.8,22.1,0,44.6,2.6,66.5c1.1,9.1,2.9,18.8,11.5,23.5c19.9,11,30.3-5.8,32-10.4
	c4.2-11.5,5.9-23.9,6.8-36c0.9-11.6,1.1-23.2,1-34.8c0-6.3,0-12.6,0.3-19c0.5-8.6-1-19.2,2.6-27.1c0.9-1.9,3.7-1.6,4.7,0
	c2.9,4.7,2.5,9.9,2.2,15.3c-0.3,6.3-0.8,12.5-0.9,18.8c-0.1,5.3,0,10.7,0,16c0,13.1-0.3,26.2-1.9,39.2c-1.5,12.6-3.5,26-9.8,37.2
	c0,0.1-0.1,0.1-0.1,0.2c4.1,1.1,52.1,4.2,64.1,1.4v-0.1c-6.3-14.1-7.2-28.9-7.6-44.1c-0.3-14.1-1.4-28.2-2.3-42.3
	c-0.8-12-2.9-25.6,0.1-37.5c0.6-2.4,4.2-2.4,4.8,0c2.7,10.4,2.3,21.9,3.2,32.5c1,11.5,2,23.1,2.6,34.7c0.7,14.5-0.3,29.3,3.7,43.5
	c2.9,10.3,8.8,23.7,21.5,23.3c8.1-0.2,16.6-6.4,20.6-13.9c2.6-4.8,8.2-36.2,9.1-45.7c1.7-18.4,3.7-36.9,5.8-55.3
	C240.2,372.6,242.3,354.5,244.8,336.5z M97.8,139.1c-17.4,3-31.2-12.5-30.2-29c0.4-6.5,1.7-13,6.1-17.8c5.6-6.6,11.8-7.9,20.6-7.9
	c14.6,0,20.6,6,24.3,17.7C123.9,118.8,115.9,135.9,97.8,139.1z M171.8,140c-2.2,5.4-12.5,6-16.8,3c-1.8-1.2-3.2-2.8-4-4.8
	c-1.1,1.7-2.5,3.1-4.5,3.9c-5.7,2.4-13.7,1.4-18.4-2.8c-0.8-0.7-0.2-2.3,0.9-2.2c5.1,0.3,10.6,3.6,15.7,0.7c2.8-1.6,3.4-4.3,4.4-7
	c-3-1.1-6.5-4.6-8.1-6.6c-2.4-2.9-4.3-6.5-2.7-10.2c1.5-3.5,6.3-5.6,9.9-4.2c1.7,0.7,2.8,1.3,4.2,3.8c3.4-4.3,13.7-4.2,14.7,2
	c0.7,4.3-2,8.4-5.2,11.1c-2.1,1.8-5.1,3.8-7.8,4.5c0.6,3,0.4,6.5,3.8,7.6c2.1,0.7,4.4,0.9,6.6,0.4c1.7-0.4,3.2-1.4,4.9-1.7
	C170.7,137.2,172.4,138.4,171.8,140z M212.6,141.3c-17.4,3-31.2-12.5-30.2-29c0.4-6.5,1.7-13,6.1-17.8c5.6-6.6,11.8-7.9,20.6-7.9
	c14.6,0,20.6,6,24.3,17.7C238.7,121.1,230.7,138.2,212.6,141.3z M285.9,344.2c-1.1-11.3-4.6-21.5-10.6-31.2
	c-4.7-7.6-10-14.7-18.5-18.3c-1.3,16.9-2.5,30.6-4.4,45.4c-2.5,19.4-4.9,38.8-7.1,58.3c-2.2,19.1-3.9,38.4-6.4,57.5
	c-1.1,8.9-2.9,17.7-4,26.6c-0.3,2.1-0.5,4.3-0.9,6.4c3.1,2.5,5.2,5.9,8.6,8c4.2,2.6,8.9,4.4,13.8,4.6c9.5,0.3,20.5-3.7,22.7-14.1
	c2.1-9.8-1.2-19.5-2.7-29.2c-1.9-12.5-1.3-25.3,0.3-37.8C279.9,394.8,288.3,370.1,285.9,344.2z"/>
<path d="M35.3,496.2c-11.4-2.9-13.1-14.8-12.7-24.8c0.5-11.4,3.6-22.9,1.5-34.3c-2.5-13.9-6-27.5-9.4-41.2
	c-5.5-22.6-7.6-47.6-1.8-70.4c2.5-9.6,7.7-20.7,15.3-26.9c3.5-2.8,10.4-6.8,15.3-7.5c-0.3,18,0.1,34,1.6,52
	c2.3,27.2,7.2,53.9,8.6,81.2c0.6,11.9,0.1,23.8,0.5,35.7c0.3,9.3,0.8,19.4,4.6,28.1C53.3,495.3,44,498.4,35.3,496.2z M232.5,446
	c-0.9,9.6-6.5,40.9-9.1,45.7c-4,7.5-12.5,13.7-20.6,13.9c-12.7,0.4-18.6-13-21.5-23.3c-4-14.2-3-28.9-3.7-43.5
	c-0.6-11.6-1.7-23.1-2.6-34.7c-0.9-10.6-0.6-22.2-3.2-32.5c-0.6-2.4-4.2-2.4-4.8,0c-2.9,11.9-0.9,25.4-0.1,37.5
	c0.9,14.1,2,28.1,2.3,42.3c0.3,15.2,1.3,30.1,7.6,44.1v0.1c-12,2.8-60.1-0.4-64.1-1.4c0-0.1,0.1-0.1,0.1-0.2
	c6.3-11.2,8.3-24.6,9.8-37.2c1.5-13,1.9-26.1,1.9-39.2c0-5.3-0.1-10.7,0-16c0.1-6.3,0.6-12.5,0.9-18.8c0.2-5.4,0.6-10.6-2.2-15.3
	c-1-1.6-3.8-1.9-4.7,0c-3.6,7.9-2.1,18.5-2.6,27.1c-0.3,6.3-0.4,12.6-0.3,19c0.1,11.6-0.1,23.2-1,34.8c-0.9,12.2-2.7,24.5-6.8,36
	c-1.7,4.6-12.1,21.4-32,10.4c-8.6-4.7-10.4-14.4-11.5-23.5c-2.6-22-0.8-44.4-2.6-66.5c-1.9-23.2-6.3-46-8.4-69.1
	c-1-11.8-0.4-28.7-1.2-40.6c0-30.1-1.8-34.6-3.1-54.2c-1.3-20.2-2.6-40.3-2.8-60.5c-0.2-20.8,1.1-41.5,4-62.2
	c1.3-9.4,3-18.8,4.6-28.2c2.5-12.4,3.6-17.7,5.3-26.2c1.6-7.9,3.1-15.9,4.9-23.7c2.3-9.8,4.7-23.2,12.2-30.5
	c10.3-10,29.2,39,36,42.6c1.8,1,4.5,0.3,4.8-2c8.8,3.8,21.2,0.3,30.9-0.7c10-1,19.8-0.9,29.7,0.7c5.1,0.8,10.2,1.4,15.3,2.6
	c3.2,0.7,5.5,1.8,8.3-0.4c0.6-0.5,0.8-1.3,0.7-2c-0.3-1.4-1-2.5-2-3.4c6.1-8.7,10.6-18.6,17.1-27.1c3.3-4.3,7.8-9.6,13.5-10.8
	c5.6-1.1,9.4,7.8,11.1,11.6c5.8,13.2,6.9,28.4,9.3,42.5c0.3,2,3.6,37.2,4.9,53.1c1.7,19.7,0.6,39.8-0.3,59.5
	c-0.9,19.1-2.5,38.2-3.7,57.3c-0.6,9.8-5.6,85.5-8,103.4c-2.5,18.1-4.5,36.2-6.5,54.3C236.2,409.1,234.2,427.6,232.5,446z
	 M276.5,458c1.5,9.6,4.8,19.4,2.7,29.2c-2.2,10.5-13.1,14.5-22.7,14.1c-4.9-0.2-9.7-2-13.8-4.6c-3.4-2.1-5.6-5.5-8.6-8
	c0.4-2.1,0.7-4.3,0.9-6.4c1.1-8.9,2.9-17.7,4-26.6c2.4-19.1,4.2-38.3,6.4-57.5c2.2-19.4,4.6-38.8,7.1-58.3
	c1.9-14.8,3.1-28.5,4.4-45.4c8.4,3.6,13.8,10.7,18.5,18.3c6,9.7,9.5,19.9,10.6,31.2c2.5,25.9-6,50.6-9.1,76
	C275.2,432.7,274.6,445.5,276.5,458z M288.3,485c0.4-3.2,0.4-6.6,0-9.9c-0.5-5.5-1.8-10.9-2.8-16.3c-1.5-8-1.5-16.3-1.2-24.5
	c0-1.3,0.1-2.5,0.2-3.8c0.1-2.7,0.4-4.5,0.6-6.9c3.1-28,12.7-55.1,9.1-83.7c-1.6-12.5-6.6-23.7-13.4-34.2
	c-5.6-8.5-13-19.2-23.2-21.7c1.3-17.2,2.3-30.4,3.2-46c1.2-20,3-39.9,4-59.8c0.9-19.7,2.1-53.2-1.3-82.8c-1-8.4-3.6-31.3-4.9-39.6
	c-2.5-15.7-4.7-32.9-13.8-46.4c-17-25.5-43.4,17.8-49.8,35c-2.7-0.6-5.6-0.8-7.6-1.2c-9.2-1.6-18.4-2.9-27.8-2.7
	c-8.3,0.2-16.6,1-24.8,2.2c-4.4,0.6-8.8,1.3-13.3,1.4c-2.3,0.1-4-0.3-5.5-1c-1.5-2.7-3.5-5.4-4.7-7.5c-3.4-6-7-11.9-10.5-17.9
	c-5.1-8.5-13.3-21.4-25-16.5C64.9,5.5,61.2,22.9,58.7,32.7c-1.8,6.9-3,14-4.6,21c-10.5,46.6-16.5,95.6-16.3,126.7
	c0.2,20.2,1.6,40.4,2.9,60.5c0.9,13.1,3,40.2,3,40.5c-6.1,0.6-14.2,5.5-18.3,8.5c-9.2,6.9-14.1,15.6-18.6,26.3
	c-11,25.8-6.8,58.2-0.4,84.5c3.8,15.5,9.5,31.6,9,47.7c-0.4,13.5-5.5,29.5,0.9,42.3c9.4,18.9,33.9,18.6,47.2,5
	c5.7,10,26.9,22,45.3,3.8c10.2,5.5,25.6,6.2,33,6.2c15.2,0,21.8,1.6,39.4-2.7c6.3,8.1,15.7,12.4,26.8,10.8c8.9-1.3,16.6-6.3,21.2-14
	c0.5-0.9,1-1.9,1.6-3c3.4,5.8,11.2,9.6,17,11.5c9.7,3.1,21.1,1.7,29.5-4c4.1-2.8,6.9-6.4,8.7-10.5
	C287.4,490.9,287.6,488.1,288.3,485z M94.3,84.3c-8.8,0-15,1.3-20.6,7.9C69.3,97,68,103.5,67.6,110c-1,16.5,12.8,32.1,30.2,29
	c18.1-3.2,26.2-20.3,20.9-37C114.9,90.3,108.9,84.3,94.3,84.3z M99.6,132.8c-13.3,3.7-27.2-6.5-26.7-19.3
	C73.8,90.2,90.3,90.2,95.3,90c7.6-0.3,12.4,3.1,15.9,9.6C118.4,112.7,113.7,128.8,99.6,132.8z M209.1,86.6c-8.8,0-15,1.3-20.6,7.9
	c-4.4,4.8-5.7,11.3-6.1,17.8c-1,16.5,12.8,32.1,30.2,29c18.1-3.2,26.2-20.3,20.9-37C229.7,92.6,223.7,86.6,209.1,86.6z M214.4,135
	c-13.3,3.7-27.2-6.5-26.7-19.3c0.9-23.2,17.4-23.2,22.3-23.4c7.6-0.3,12.4,3.1,15.9,9.6C233.2,114.9,228.5,131.1,214.4,135z
	 M169.3,137.5c-1.7,0.3-3.2,1.3-4.9,1.7c-2.2,0.5-4.5,0.3-6.6-0.4c-3.4-1.1-3.2-4.6-3.8-7.6c2.7-0.7,5.7-2.7,7.8-4.5
	c3.2-2.7,5.9-6.7,5.2-11.1c-1-6.2-11.3-6.4-14.7-2c-1.4-2.5-2.5-3.1-4.2-3.8c-3.6-1.4-8.4,0.7-9.9,4.2c-1.6,3.7,0.3,7.3,2.7,10.2
	c1.7,2,5.1,5.5,8.1,6.6c-1,2.7-1.6,5.4-4.4,7c-5.1,2.9-10.5-0.4-15.7-0.7c-1.1-0.1-1.8,1.5-0.9,2.2c4.7,4.1,12.7,5.2,18.4,2.8
	c2-0.8,3.4-2.2,4.5-3.9c0.8,1.9,2.2,3.6,4,4.8c4.4,3,14.7,2.4,16.8-3C172.4,138.4,170.7,137.2,169.3,137.5z M142.6,118
	c-1-2.5,0.9-4.1,3.2-3.4c2.4,0.7,3.2,1.3,5.1,3.7c0.4,0.5,1.3,1.5,2.5,0c1.3-1.6,3.1-3,5.5-3.2c1.5-0.1,3.8,0.2,3.9,2.1
	c0.1,2.5-2.4,4.9-4.1,6.4c-2.1,1.9-4.8,3.4-7.6,3.4C147.3,125.6,143.5,120.3,142.6,118z"/>
<path style="opacity:0.5;fill:#FFFFFF;enable-background:new    ;" d="M90.4,21.8l0.1,0.1C90.3,21.5,90.3,21.5,90.4,21.8z
	 M96.2,32.3c-0.9-2-1.8-4-2.8-5.9c-0.4-0.8-1-1.6-1.4-2.4c-0.2-0.4-1.2-1.7-1.5-2.2c-3-3.7-9.8-2.9-9.6,2.8c0.1,4.2,2,8,3.6,11.8
	c1,2.2,1.5,4.5,3.4,6.2c1.4,1.3,3.5,3.5,6.5,2.7C100.1,43.7,97.9,35.9,96.2,32.3z M244,40.2c-0.3-2.9-1.2-5.9-1.9-8.7
	c-0.8-3.3-1.1-6.3-2.6-9.4c-2.6-5.5-9.6-2.9-11.4,1.5c-2.1,5.1-0.5,11.7,0.6,17c0.9,4.5,3.8,12.3,9.5,12.3
	C244.4,52.8,244.4,44.3,244,40.2z M244.4,58.8c-2.3-2.7-7.4-1.3-8.1,2.1c-0.6,3.1,0.1,7.2,2.4,9.6c1.2,1.3,3.2,1.8,4.9,1.3
	c1.8-0.5,2.9-1.8,3.5-3.5C248.4,65.2,246.4,61,244.4,58.8z M166.1,56.6c-4-8.9-20.3-5.1-27-1.8c-1.8,0.9-1.9,4.1,0,5
	c4.3,1.9,8.4,1.8,13.1,1.8c4.4,0,9,1.1,13-1.3C166.5,59.5,166.7,58,166.1,56.6z M246.7,242c-1.6-4.3-7.1-4.3-8.8,0
	c-2.6,6.7-2.2,14.6-2.8,21.7c-0.5,7.1-2,14.7,0.7,21.5c1.2,3.1,5.1,3.9,7,0.9c3.8-5.9,4.1-13.1,4.7-19.9
	C248.2,258.5,249.5,249.5,246.7,242z M241.5,296.4c-1.3-1.9-3.8-1.9-5.1,0c-1.4,2-1.4,4.9-1.5,7.3s0.4,4.7,1.5,6.9
	c0.7,1.2,2.4,1.4,3.4,0.4c1.8-1.7,2.9-4.1,3-6.5C242.9,301.9,243,298.6,241.5,296.4z M231.1,387.9c-2.1-1.7-5.4-2.4-7.4,0
	c-5.4,6.5-5.2,18.3-5.7,26.3c-0.7,10.1-1.7,21.8,1.5,31.6c1,3.2,5.4,3.9,7.1,0.9c5.2-8.7,5-20.2,5.3-30c0.2-5.9,0.7-11.7,1.2-17.6
	C233.5,395.2,234.7,390.8,231.1,387.9z M224.6,454.3c-1.6-1.5-3.9-1.5-5.5,0c-1.7,1.6-1.8,4.8-1.5,7c-0.1-0.8,0,0.6,0,0.6
	c0.1,0.9,0.3,1.5,0.7,2.3c0.5,0.9,1.7,1.8,2.8,1.8c2.7-0.1,3.8-2,4.6-4.2C226.6,459.6,226.3,455.9,224.6,454.3z M111.6,397.7
	c0.1-7.7,0.8-17.5-2.9-24.4c-1.2-2.3-4.9-2.3-6.1,0c-3.7,7.1-2.5,16.6-2.7,24.4c-0.2,8.2-1.9,17.2,1.5,24.8c1.1,2.6,4.5,1.7,5.8,0
	C112.3,415.8,111.5,405.8,111.6,397.7z M103,431.6c-1.3,2.2-1.6,4.5-1.8,7.1c-0.2,2.4-0.2,5.8,1.6,7.5c0.7,0.7,1.7,0.8,2.5,0.3
	c4-2.1,2.7-8.9,3.3-12.6C109.1,430.7,104.9,428.5,103,431.6z M28.5,307.2c-7,7.8-10.6,18-12.9,28.1c-2.3,10.3-4.3,23.6,2.3,32.6
	c1.9,2.6,5.1,2,6.3-0.8c3.7-8.8,2.6-19,4.5-28.2s5.9-17.7,8.2-26.8C38.2,307.4,32,303.3,28.5,307.2z M27.7,376.5
	c-1.7-2.1-4.7-1-6,0.8c-1.9,2.7-1.1,6.3-0.7,9.3c0.4,3.1,1.3,7.6,5.4,7.6C34.3,394.2,30.5,380,27.7,376.5z M280.5,345
	c-0.8-10.1-4.2-23.5-13.3-29.1c-3.3-2-7.6,1.3-6.5,5c1.2,4.2,3.4,8,4.9,12.2c1.8,5.2,2.3,10.6,2.6,16c0.5,8.9-2.7,18.4,1.3,26.7
	c0.9,1.7,3,1.6,4.3,0.6C282.3,369.6,281.3,354.8,280.5,345z M276,387.4c-0.3-3.4-4.1-5.3-6.7-2.8c-3.2,3.1-3.8,9.1-3.2,13.2
	c0.6,3.9,6.8,4.6,8.4,1.1c1-2.2,1.5-4.2,1.5-6.6c0-0.8,0-1.6,0-2.4c0-0.4,0-0.7,0.1-1.1C276.1,388.5,275.9,386.3,276,387.4z"/>
</svg>
